<?xml version="1.0" encoding="UTF-8"?>
<!DOCTYPE svg PUBLIC "-//W3C//DTD SVG 1.1//EN" "http://www.w3.org/Graphics/SVG/1.1/DTD/svg11.dtd">
<!-- Creator: CorelDRAW -->
<svg xmlns="http://www.w3.org/2000/svg" xml:space="preserve" width="111.816mm" height="162.206mm" version="1.1" style="shape-rendering:geometricPrecision; text-rendering:geometricPrecision; image-rendering:optimizeQuality; fill-rule:evenodd; clip-rule:evenodd"
viewBox="0 0 1475.01 2139.73"
 xmlns:xlink="http://www.w3.org/1999/xlink"
 xmlns:xodm="http://www.corel.com/coreldraw/odm/2003">
 <defs>
  <style type="text/css">
   <![CDATA[
    .fil0 {fill:black}
   ]]>
  </style>
 </defs>
 <g id="Layer_x0020_1">
  <metadata id="CorelCorpID_0Corel-Layer"/>
  <g id="_2816402602336">
   <path class="fil0" d="M191.07 531.74c-98.6,109.5 -189.61,246.95 -189.61,398.31l180.47 172.76 -181.93 171.94c28.47,117.39 78.92,212.27 141.95,294.25l0 -167.52 208.04 -196.62 0 573.54c62.63,52.94 127.44,103.66 189.61,157.07l0 -1344.7 -189.61 115.9 0 294.07 -158.92 -150.2 0 -318.81z"/>
   <path class="fil0" d="M1283.95 531.74c98.6,109.5 189.61,246.95 189.61,398.31l-180.47 172.76 181.93 171.94c-28.47,117.39 -78.92,212.27 -141.95,294.25l0 -167.52 -208.04 -196.62 0 573.54c-62.63,52.94 -127.44,103.66 -189.61,157.07l0 -1344.7 189.61 115.9 0 294.07 158.92 -150.2 0 -318.81z"/>
   <path class="fil0" d="M737.51 0c104.94,148.33 252.96,260.62 388.61,379.39l0 193.05c-44.6,-28.85 -258.2,-164.5 -297.75,-170.62 -8.19,141.62 -0.54,364.45 -0.54,509.02l0.07 1124.29c-32.15,32.79 -62.59,67.35 -90.4,104.59 -27.81,-37.24 -58.25,-71.79 -90.4,-104.59l0.08 -1124.29c0,-144.57 7.65,-367.4 -0.54,-509.02 -39.55,6.12 -253.14,141.77 -297.75,170.62l0 -193.05c135.65,-118.77 283.67,-231.06 388.61,-379.39z"/>
  </g>
 </g>
</svg>
